<svg width="36" height="39" viewBox="0 0 36 39" fill="none" xmlns="http://www.w3.org/2000/svg">
<g filter="url(#filter0_bii_1_14521)">
<path d="M12.1146 0.924805C7.63875 0.924805 4 4.56355 4 9.03939C4 13.4298 7.43375 16.9831 11.9096 17.1369C12.0462 17.1198 12.1829 17.1198 12.2854 17.1369C12.3196 17.1369 12.3367 17.1369 12.3708 17.1369C12.3879 17.1369 12.3879 17.1369 12.405 17.1369C16.7783 16.9831 20.2121 13.4298 20.2292 9.03939C20.2292 4.56355 16.5904 0.924805 12.1146 0.924805Z" fill="#6746F6"/>
</g>
<g filter="url(#filter1_bii_1_14521)">
<path d="M20.705 25.3079C15.9388 22.1304 8.16583 22.1304 3.36542 25.3079C1.19583 26.76 0 28.7246 0 30.8258C0 32.9271 1.19583 34.8746 3.34833 36.3096C5.74 37.9154 8.88333 38.7183 12.0267 38.7183C15.17 38.7183 18.3133 37.9154 20.705 36.3096C22.8575 34.8575 24.0533 32.91 24.0533 30.7917C24.0363 28.6904 22.8575 26.7429 20.705 25.3079Z" fill="#6746F6"/>
</g>
<g opacity="0.4" filter="url(#filter2_bii_1_14521)">
<path d="M32.045 9.53405C32.3183 12.8482 29.9608 15.7524 26.6979 16.1453C26.6808 16.1453 26.6808 16.1453 26.6638 16.1453H26.6125C26.51 16.1453 26.4075 16.1453 26.3221 16.1795C24.665 16.2649 23.1446 15.7353 22 14.7615C23.7596 13.1899 24.7675 10.8324 24.5625 8.26988C24.4429 6.88613 23.9646 5.62196 23.2471 4.54571C23.8963 4.22113 24.6479 4.01613 25.4167 3.9478C28.765 3.65738 31.7546 6.15155 32.045 9.53405Z" fill="#6746F6"/>
</g>
<g opacity="0.4" filter="url(#filter3_bii_1_14521)">
<path d="M35.6667 29.9126C35.53 31.5696 34.4708 33.0046 32.6942 33.9784C30.9858 34.918 28.8333 35.3621 26.6979 35.3109C27.9279 34.2005 28.6454 32.8167 28.7821 31.3476C28.9529 29.2292 27.945 27.1963 25.9292 25.5734C24.7846 24.668 23.4521 23.9505 22 23.4209C25.7754 22.3276 30.5246 23.0621 33.4458 25.4196C35.0175 26.6838 35.8204 28.2726 35.6667 29.9126Z" fill="#6746F6"/>
</g>
<defs>
<filter id="filter0_bii_1_14521" x="1.83725" y="-1.23795" width="20.555" height="20.5376" filterUnits="userSpaceOnUse" color-interpolation-filters="sRGB">
<feFlood flood-opacity="0" result="BackgroundImageFix"/>
<feGaussianBlur in="BackgroundImageFix" stdDeviation="1.08137"/>
<feComposite in2="SourceAlpha" operator="in" result="effect1_backgroundBlur_1_14521"/>
<feBlend mode="normal" in="SourceGraphic" in2="effect1_backgroundBlur_1_14521" result="shape"/>
<feColorMatrix in="SourceAlpha" type="matrix" values="0 0 0 0 0 0 0 0 0 0 0 0 0 0 0 0 0 0 127 0" result="hardAlpha"/>
<feOffset dx="-1.08137" dy="1.08137"/>
<feGaussianBlur stdDeviation="0.540687"/>
<feComposite in2="hardAlpha" operator="arithmetic" k2="-1" k3="1"/>
<feColorMatrix type="matrix" values="0 0 0 0 1 0 0 0 0 1 0 0 0 0 1 0 0 0 0.1 0"/>
<feBlend mode="normal" in2="shape" result="effect2_innerShadow_1_14521"/>
<feColorMatrix in="SourceAlpha" type="matrix" values="0 0 0 0 0 0 0 0 0 0 0 0 0 0 0 0 0 0 127 0" result="hardAlpha"/>
<feOffset dx="1.08137" dy="-1.08137"/>
<feGaussianBlur stdDeviation="0.540687"/>
<feComposite in2="hardAlpha" operator="arithmetic" k2="-1" k3="1"/>
<feColorMatrix type="matrix" values="0 0 0 0 0.122196 0 0 0 0 0.134118 0 0 0 0 0.14902 0 0 0 0.1 0"/>
<feBlend mode="normal" in2="effect2_innerShadow_1_14521" result="effect3_innerShadow_1_14521"/>
</filter>
<filter id="filter1_bii_1_14521" x="-2.65646" y="20.2683" width="29.3666" height="21.1064" filterUnits="userSpaceOnUse" color-interpolation-filters="sRGB">
<feFlood flood-opacity="0" result="BackgroundImageFix"/>
<feGaussianBlur in="BackgroundImageFix" stdDeviation="1.32823"/>
<feComposite in2="SourceAlpha" operator="in" result="effect1_backgroundBlur_1_14521"/>
<feBlend mode="normal" in="SourceGraphic" in2="effect1_backgroundBlur_1_14521" result="shape"/>
<feColorMatrix in="SourceAlpha" type="matrix" values="0 0 0 0 0 0 0 0 0 0 0 0 0 0 0 0 0 0 127 0" result="hardAlpha"/>
<feOffset dx="-1.32823" dy="1.32823"/>
<feGaussianBlur stdDeviation="0.664115"/>
<feComposite in2="hardAlpha" operator="arithmetic" k2="-1" k3="1"/>
<feColorMatrix type="matrix" values="0 0 0 0 1 0 0 0 0 1 0 0 0 0 1 0 0 0 0.1 0"/>
<feBlend mode="normal" in2="shape" result="effect2_innerShadow_1_14521"/>
<feColorMatrix in="SourceAlpha" type="matrix" values="0 0 0 0 0 0 0 0 0 0 0 0 0 0 0 0 0 0 127 0" result="hardAlpha"/>
<feOffset dx="1.32823" dy="-1.32823"/>
<feGaussianBlur stdDeviation="0.664115"/>
<feComposite in2="hardAlpha" operator="arithmetic" k2="-1" k3="1"/>
<feColorMatrix type="matrix" values="0 0 0 0 0.122196 0 0 0 0 0.134118 0 0 0 0 0.14902 0 0 0 0.1 0"/>
<feBlend mode="normal" in2="effect2_innerShadow_1_14521" result="effect3_innerShadow_1_14521"/>
</filter>
<filter id="filter2_bii_1_14521" x="20.5113" y="2.43613" width="13.0438" height="15.241" filterUnits="userSpaceOnUse" color-interpolation-filters="sRGB">
<feFlood flood-opacity="0" result="BackgroundImageFix"/>
<feGaussianBlur in="BackgroundImageFix" stdDeviation="0.744339"/>
<feComposite in2="SourceAlpha" operator="in" result="effect1_backgroundBlur_1_14521"/>
<feBlend mode="normal" in="SourceGraphic" in2="effect1_backgroundBlur_1_14521" result="shape"/>
<feColorMatrix in="SourceAlpha" type="matrix" values="0 0 0 0 0 0 0 0 0 0 0 0 0 0 0 0 0 0 127 0" result="hardAlpha"/>
<feOffset dx="-0.744339" dy="0.744339"/>
<feGaussianBlur stdDeviation="0.372169"/>
<feComposite in2="hardAlpha" operator="arithmetic" k2="-1" k3="1"/>
<feColorMatrix type="matrix" values="0 0 0 0 1 0 0 0 0 1 0 0 0 0 1 0 0 0 0.1 0"/>
<feBlend mode="normal" in2="shape" result="effect2_innerShadow_1_14521"/>
<feColorMatrix in="SourceAlpha" type="matrix" values="0 0 0 0 0 0 0 0 0 0 0 0 0 0 0 0 0 0 127 0" result="hardAlpha"/>
<feOffset dx="0.744339" dy="-0.744339"/>
<feGaussianBlur stdDeviation="0.372169"/>
<feComposite in2="hardAlpha" operator="arithmetic" k2="-1" k3="1"/>
<feColorMatrix type="matrix" values="0 0 0 0 0.122196 0 0 0 0 0.134118 0 0 0 0 0.14902 0 0 0 0.1 0"/>
<feBlend mode="normal" in2="effect2_innerShadow_1_14521" result="effect3_innerShadow_1_14521"/>
</filter>
<filter id="filter3_bii_1_14521" x="20.2616" y="21.1864" width="17.1623" height="15.8668" filterUnits="userSpaceOnUse" color-interpolation-filters="sRGB">
<feFlood flood-opacity="0" result="BackgroundImageFix"/>
<feGaussianBlur in="BackgroundImageFix" stdDeviation="0.869179"/>
<feComposite in2="SourceAlpha" operator="in" result="effect1_backgroundBlur_1_14521"/>
<feBlend mode="normal" in="SourceGraphic" in2="effect1_backgroundBlur_1_14521" result="shape"/>
<feColorMatrix in="SourceAlpha" type="matrix" values="0 0 0 0 0 0 0 0 0 0 0 0 0 0 0 0 0 0 127 0" result="hardAlpha"/>
<feOffset dx="-0.869179" dy="0.869179"/>
<feGaussianBlur stdDeviation="0.434589"/>
<feComposite in2="hardAlpha" operator="arithmetic" k2="-1" k3="1"/>
<feColorMatrix type="matrix" values="0 0 0 0 1 0 0 0 0 1 0 0 0 0 1 0 0 0 0.1 0"/>
<feBlend mode="normal" in2="shape" result="effect2_innerShadow_1_14521"/>
<feColorMatrix in="SourceAlpha" type="matrix" values="0 0 0 0 0 0 0 0 0 0 0 0 0 0 0 0 0 0 127 0" result="hardAlpha"/>
<feOffset dx="0.869179" dy="-0.869179"/>
<feGaussianBlur stdDeviation="0.434589"/>
<feComposite in2="hardAlpha" operator="arithmetic" k2="-1" k3="1"/>
<feColorMatrix type="matrix" values="0 0 0 0 0.122196 0 0 0 0 0.134118 0 0 0 0 0.14902 0 0 0 0.1 0"/>
<feBlend mode="normal" in2="effect2_innerShadow_1_14521" result="effect3_innerShadow_1_14521"/>
</filter>
</defs>
</svg>
