<svg width="36" height="32" viewBox="0 0 36 32" fill="none" xmlns="http://www.w3.org/2000/svg">
<path d="M0.5 5.1377C0.5 2.72461 2.46191 0.762695 4.875 0.762695H31.125C33.5381 0.762695 35.5 2.72461 35.5 5.1377V27.0127C35.5 29.4258 33.5381 31.3877 31.125 31.3877H4.875C2.46191 31.3877 0.5 29.4258 0.5 27.0127V5.1377ZM3.78125 23.7314V25.9189C3.78125 26.5205 4.27344 27.0127 4.875 27.0127H7.0625C7.66406 27.0127 8.15625 26.5205 8.15625 25.9189V23.7314C8.15625 23.1299 7.66406 22.6377 7.0625 22.6377H4.875C4.27344 22.6377 3.78125 23.1299 3.78125 23.7314ZM28.9375 22.6377C28.3359 22.6377 27.8438 23.1299 27.8438 23.7314V25.9189C27.8438 26.5205 28.3359 27.0127 28.9375 27.0127H31.125C31.7266 27.0127 32.2188 26.5205 32.2188 25.9189V23.7314C32.2188 23.1299 31.7266 22.6377 31.125 22.6377H28.9375ZM3.78125 14.9814V17.1689C3.78125 17.7705 4.27344 18.2627 4.875 18.2627H7.0625C7.66406 18.2627 8.15625 17.7705 8.15625 17.1689V14.9814C8.15625 14.3799 7.66406 13.8877 7.0625 13.8877H4.875C4.27344 13.8877 3.78125 14.3799 3.78125 14.9814ZM28.9375 13.8877C28.3359 13.8877 27.8438 14.3799 27.8438 14.9814V17.1689C27.8438 17.7705 28.3359 18.2627 28.9375 18.2627H31.125C31.7266 18.2627 32.2188 17.7705 32.2188 17.1689V14.9814C32.2188 14.3799 31.7266 13.8877 31.125 13.8877H28.9375ZM3.78125 6.23145V8.41895C3.78125 9.02051 4.27344 9.5127 4.875 9.5127H7.0625C7.66406 9.5127 8.15625 9.02051 8.15625 8.41895V6.23145C8.15625 5.62988 7.66406 5.1377 7.0625 5.1377H4.875C4.27344 5.1377 3.78125 5.62988 3.78125 6.23145ZM28.9375 5.1377C28.3359 5.1377 27.8438 5.62988 27.8438 6.23145V8.41895C27.8438 9.02051 28.3359 9.5127 28.9375 9.5127H31.125C31.7266 9.5127 32.2188 9.02051 32.2188 8.41895V6.23145C32.2188 5.62988 31.7266 5.1377 31.125 5.1377H28.9375ZM11.4375 7.3252V11.7002C11.4375 12.9102 12.415 13.8877 13.625 13.8877H22.375C23.585 13.8877 24.5625 12.9102 24.5625 11.7002V7.3252C24.5625 6.11523 23.585 5.1377 22.375 5.1377H13.625C12.415 5.1377 11.4375 6.11523 11.4375 7.3252ZM13.625 18.2627C12.415 18.2627 11.4375 19.2402 11.4375 20.4502V24.8252C11.4375 26.0352 12.415 27.0127 13.625 27.0127H22.375C23.585 27.0127 24.5625 26.0352 24.5625 24.8252V20.4502C24.5625 19.2402 23.585 18.2627 22.375 18.2627H13.625Z" fill="#F8B602"/>
</svg>
